<mxfile host="Electron" modified="2024-04-22T02:10:41.496Z" agent="Mozilla/5.0 (Windows NT 10.0; Win64; x64) AppleWebKit/537.36 (KHTML, like Gecko) draw.io/24.2.5 Chrome/120.0.6099.109 Electron/28.1.0 Safari/537.36" etag="dUsxWDSYDqKyiluHEeXo" version="24.2.5" type="device">
  <diagram name="Page-1" id="2BQumix1Ysk8Q15wAjjS">
    <mxGraphModel dx="2298" dy="1242" grid="1" gridSize="10" guides="1" tooltips="1" connect="1" arrows="1" fold="1" page="1" pageScale="1" pageWidth="850" pageHeight="1100" math="0" shadow="0">
      <root>
        <mxCell id="0" />
        <mxCell id="1" parent="0" />
        <mxCell id="2G7nKuCWyWsBuo0fXf3Y-1" value="" style="shape=umlLifeline;perimeter=lifelinePerimeter;whiteSpace=wrap;html=1;container=1;dropTarget=0;collapsible=0;recursiveResize=0;outlineConnect=0;portConstraint=eastwest;newEdgeStyle={&quot;curved&quot;:0,&quot;rounded&quot;:0};participant=umlActor;" parent="1" vertex="1">
          <mxGeometry x="540" y="212" width="20" height="1308" as="geometry" />
        </mxCell>
        <mxCell id="2G7nKuCWyWsBuo0fXf3Y-2" value="" style="html=1;points=[[0,0,0,0,5],[0,1,0,0,-5],[1,0,0,0,5],[1,1,0,0,-5]];perimeter=orthogonalPerimeter;outlineConnect=0;targetShapes=umlLifeline;portConstraint=eastwest;newEdgeStyle={&quot;curved&quot;:0,&quot;rounded&quot;:0};" parent="2G7nKuCWyWsBuo0fXf3Y-1" vertex="1">
          <mxGeometry x="5" y="70" width="10" height="680" as="geometry" />
        </mxCell>
        <mxCell id="2G7nKuCWyWsBuo0fXf3Y-3" value="NFS" style="shape=umlLifeline;perimeter=lifelinePerimeter;whiteSpace=wrap;html=1;container=1;dropTarget=0;collapsible=0;recursiveResize=0;outlineConnect=0;portConstraint=eastwest;newEdgeStyle={&quot;edgeStyle&quot;:&quot;elbowEdgeStyle&quot;,&quot;elbow&quot;:&quot;vertical&quot;,&quot;curved&quot;:0,&quot;rounded&quot;:0};" parent="1" vertex="1">
          <mxGeometry x="1058" y="212" width="105" height="1308" as="geometry" />
        </mxCell>
        <mxCell id="2G7nKuCWyWsBuo0fXf3Y-4" value="" style="html=1;points=[[0,0,0,0,5],[0,1,0,0,-5],[1,0,0,0,5],[1,1,0,0,-5]];perimeter=orthogonalPerimeter;outlineConnect=0;targetShapes=umlLifeline;portConstraint=eastwest;newEdgeStyle={&quot;curved&quot;:0,&quot;rounded&quot;:0};" parent="2G7nKuCWyWsBuo0fXf3Y-3" vertex="1">
          <mxGeometry x="47" y="90" width="10" height="300" as="geometry" />
        </mxCell>
        <mxCell id="2G7nKuCWyWsBuo0fXf3Y-6" value="UI&lt;div&gt;(mainwindow)&lt;/div&gt;" style="shape=umlLifeline;perimeter=lifelinePerimeter;whiteSpace=wrap;html=1;container=1;dropTarget=0;collapsible=0;recursiveResize=0;outlineConnect=0;portConstraint=eastwest;newEdgeStyle={&quot;edgeStyle&quot;:&quot;elbowEdgeStyle&quot;,&quot;elbow&quot;:&quot;vertical&quot;,&quot;curved&quot;:0,&quot;rounded&quot;:0};" parent="1" vertex="1">
          <mxGeometry x="700" y="210" width="100" height="1310" as="geometry" />
        </mxCell>
        <mxCell id="2G7nKuCWyWsBuo0fXf3Y-7" value="" style="html=1;points=[[0,0,0,0,5],[0,1,0,0,-5],[1,0,0,0,5],[1,1,0,0,-5]];perimeter=orthogonalPerimeter;outlineConnect=0;targetShapes=umlLifeline;portConstraint=eastwest;newEdgeStyle={&quot;curved&quot;:0,&quot;rounded&quot;:0};" parent="2G7nKuCWyWsBuo0fXf3Y-6" vertex="1">
          <mxGeometry x="45" y="82" width="10" height="538" as="geometry" />
        </mxCell>
        <mxCell id="2G7nKuCWyWsBuo0fXf3Y-8" value="User" style="text;html=1;align=center;verticalAlign=middle;resizable=0;points=[];autosize=1;strokeColor=none;fillColor=none;" parent="1" vertex="1">
          <mxGeometry x="525" y="180" width="50" height="30" as="geometry" />
        </mxCell>
        <mxCell id="2G7nKuCWyWsBuo0fXf3Y-9" value="Powers on device" style="html=1;verticalAlign=bottom;endArrow=block;curved=0;rounded=0;" parent="1" target="2G7nKuCWyWsBuo0fXf3Y-7" edge="1">
          <mxGeometry x="0.0032" width="80" relative="1" as="geometry">
            <mxPoint x="555" y="302" as="sourcePoint" />
            <mxPoint x="705" y="302" as="targetPoint" />
            <mxPoint as="offset" />
          </mxGeometry>
        </mxCell>
        <mxCell id="2G7nKuCWyWsBuo0fXf3Y-10" value="powerOnDevice()" style="html=1;verticalAlign=bottom;endArrow=block;curved=0;rounded=0;" parent="1" edge="1">
          <mxGeometry x="-0.417" width="80" relative="1" as="geometry">
            <mxPoint x="755" y="321" as="sourcePoint" />
            <mxPoint x="1105" y="321" as="targetPoint" />
            <mxPoint as="offset" />
          </mxGeometry>
        </mxCell>
        <mxCell id="2G7nKuCWyWsBuo0fXf3Y-11" value="Turns on device" style="html=1;verticalAlign=bottom;endArrow=open;dashed=1;endSize=8;curved=0;rounded=0;" parent="1" target="2G7nKuCWyWsBuo0fXf3Y-7" edge="1">
          <mxGeometry x="-0.5641" relative="1" as="geometry">
            <mxPoint x="1105" y="357.0000000000001" as="sourcePoint" />
            <mxPoint x="750" y="357" as="targetPoint" />
            <mxPoint as="offset" />
          </mxGeometry>
        </mxCell>
        <mxCell id="2G7nKuCWyWsBuo0fXf3Y-12" value="Displays Readiness" style="html=1;verticalAlign=bottom;endArrow=open;dashed=1;endSize=8;curved=0;rounded=0;" parent="1" source="2G7nKuCWyWsBuo0fXf3Y-7" edge="1">
          <mxGeometry relative="1" as="geometry">
            <mxPoint x="705.0000000000001" y="382" as="sourcePoint" />
            <mxPoint x="555" y="382" as="targetPoint" />
          </mxGeometry>
        </mxCell>
        <mxCell id="2G7nKuCWyWsBuo0fXf3Y-13" value="Starts session" style="html=1;verticalAlign=bottom;endArrow=block;curved=0;rounded=0;" parent="1" edge="1">
          <mxGeometry x="-0.1053" y="7" width="80" relative="1" as="geometry">
            <mxPoint x="555" y="427" as="sourcePoint" />
            <mxPoint x="745" y="427" as="targetPoint" />
            <mxPoint as="offset" />
          </mxGeometry>
        </mxCell>
        <mxCell id="2G7nKuCWyWsBuo0fXf3Y-14" value="sessionStart()" style="html=1;verticalAlign=bottom;endArrow=block;curved=0;rounded=0;" parent="1" edge="1">
          <mxGeometry x="-0.417" width="80" relative="1" as="geometry">
            <mxPoint x="755" y="453" as="sourcePoint" />
            <mxPoint x="1105" y="453" as="targetPoint" />
            <mxPoint as="offset" />
          </mxGeometry>
        </mxCell>
        <mxCell id="2G7nKuCWyWsBuo0fXf3Y-15" value="endSession()" style="html=1;align=left;spacingLeft=2;endArrow=block;rounded=0;edgeStyle=orthogonalEdgeStyle;curved=0;rounded=0;" parent="1" edge="1">
          <mxGeometry x="-0.0033" relative="1" as="geometry">
            <mxPoint x="1115" y="560" as="sourcePoint" />
            <Array as="points">
              <mxPoint x="1143" y="559.9999999999998" />
              <mxPoint x="1143" y="589.9999999999998" />
            </Array>
            <mxPoint x="1115" y="590" as="targetPoint" />
            <mxPoint as="offset" />
          </mxGeometry>
        </mxCell>
        <mxCell id="2G7nKuCWyWsBuo0fXf3Y-16" value="display session info" style="html=1;verticalAlign=bottom;endArrow=block;curved=0;rounded=0;" parent="1" edge="1">
          <mxGeometry width="80" relative="1" as="geometry">
            <mxPoint x="745" y="625" as="sourcePoint" />
            <mxPoint x="555" y="625" as="targetPoint" />
          </mxGeometry>
        </mxCell>
        <mxCell id="2G7nKuCWyWsBuo0fXf3Y-17" value="Ref" style="shape=umlFrame;whiteSpace=wrap;html=1;pointerEvents=0;recursiveResize=0;container=1;collapsible=0;width=50;strokeColor=#78F000;" parent="1" vertex="1">
          <mxGeometry x="90" y="273" width="1360" height="767" as="geometry" />
        </mxCell>
        <mxCell id="2G7nKuCWyWsBuo0fXf3Y-18" value="NormalOperationSequenceDiagram" style="text;align=center;html=1;" parent="2G7nKuCWyWsBuo0fXf3Y-17" vertex="1">
          <mxGeometry width="100" height="20" relative="1" as="geometry">
            <mxPoint x="60" y="50" as="offset" />
          </mxGeometry>
        </mxCell>
        <mxCell id="xqgntHTFzO8ui-Y6-jRy-3" value="" style="shape=umlLifeline;perimeter=lifelinePerimeter;whiteSpace=wrap;html=1;container=1;dropTarget=0;collapsible=0;recursiveResize=0;outlineConnect=0;portConstraint=eastwest;newEdgeStyle={&quot;curved&quot;:0,&quot;rounded&quot;:0};participant=umlActor;" vertex="1" parent="2G7nKuCWyWsBuo0fXf3Y-17">
          <mxGeometry x="210" y="-61" width="20" height="1308" as="geometry" />
        </mxCell>
        <mxCell id="xqgntHTFzO8ui-Y6-jRy-4" value="" style="html=1;points=[[0,0,0,0,5],[0,1,0,0,-5],[1,0,0,0,5],[1,1,0,0,-5]];perimeter=orthogonalPerimeter;outlineConnect=0;targetShapes=umlLifeline;portConstraint=eastwest;newEdgeStyle={&quot;curved&quot;:0,&quot;rounded&quot;:0};" vertex="1" parent="xqgntHTFzO8ui-Y6-jRy-3">
          <mxGeometry x="5" y="389" width="10" height="301" as="geometry" />
        </mxCell>
        <mxCell id="2G7nKuCWyWsBuo0fXf3Y-29" value="Datamodel&amp;nbsp;" style="shape=umlLifeline;perimeter=lifelinePerimeter;whiteSpace=wrap;html=1;container=1;dropTarget=0;collapsible=0;recursiveResize=0;outlineConnect=0;portConstraint=eastwest;newEdgeStyle={&quot;curved&quot;:0,&quot;rounded&quot;:0};" parent="1" vertex="1">
          <mxGeometry x="1270" y="212" width="100" height="1308" as="geometry" />
        </mxCell>
        <mxCell id="xqgntHTFzO8ui-Y6-jRy-2" value="" style="html=1;points=[[0,0,0,0,5],[0,1,0,0,-5],[1,0,0,0,5],[1,1,0,0,-5]];perimeter=orthogonalPerimeter;outlineConnect=0;targetShapes=umlLifeline;portConstraint=eastwest;newEdgeStyle={&quot;curved&quot;:0,&quot;rounded&quot;:0};" vertex="1" parent="2G7nKuCWyWsBuo0fXf3Y-29">
          <mxGeometry x="45" y="288" width="10" height="272" as="geometry" />
        </mxCell>
        <mxCell id="2G7nKuCWyWsBuo0fXf3Y-32" value="NeuroFeedbackSystem" style="text;html=1;align=center;verticalAlign=middle;resizable=0;points=[];autosize=1;strokeColor=none;fillColor=none;" parent="1" vertex="1">
          <mxGeometry x="1030" y="180" width="150" height="30" as="geometry" />
        </mxCell>
        <mxCell id="2G7nKuCWyWsBuo0fXf3Y-34" value="handleTreatment()" style="html=1;verticalAlign=bottom;endArrow=block;curved=0;rounded=0;" parent="1" edge="1">
          <mxGeometry width="80" relative="1" as="geometry">
            <mxPoint x="1105" y="487" as="sourcePoint" />
            <mxPoint x="555" y="487" as="targetPoint" />
          </mxGeometry>
        </mxCell>
        <mxCell id="xqgntHTFzO8ui-Y6-jRy-1" value="append data to" style="html=1;verticalAlign=bottom;endArrow=block;curved=0;rounded=0;" edge="1" parent="1">
          <mxGeometry width="80" relative="1" as="geometry">
            <mxPoint x="1115" y="530" as="sourcePoint" />
            <mxPoint x="1315" y="530" as="targetPoint" />
          </mxGeometry>
        </mxCell>
        <mxCell id="xqgntHTFzO8ui-Y6-jRy-5" value="Therapist" style="text;html=1;align=center;verticalAlign=middle;resizable=0;points=[];autosize=1;strokeColor=none;fillColor=none;" vertex="1" parent="1">
          <mxGeometry x="285" y="178" width="70" height="30" as="geometry" />
        </mxCell>
        <mxCell id="xqgntHTFzO8ui-Y6-jRy-6" value="Extends to" style="endArrow=block;endSize=16;endFill=0;html=1;rounded=0;" edge="1" parent="1" target="xqgntHTFzO8ui-Y6-jRy-4">
          <mxGeometry x="0.4545" width="160" relative="1" as="geometry">
            <mxPoint x="630" y="625" as="sourcePoint" />
            <mxPoint x="395" y="665" as="targetPoint" />
            <Array as="points">
              <mxPoint x="630" y="665" />
              <mxPoint x="610" y="665" />
            </Array>
            <mxPoint as="offset" />
          </mxGeometry>
        </mxCell>
        <mxCell id="xqgntHTFzO8ui-Y6-jRy-7" value="requests detailed data from session" style="html=1;verticalAlign=bottom;endArrow=block;curved=0;rounded=0;" edge="1" parent="1" source="xqgntHTFzO8ui-Y6-jRy-4">
          <mxGeometry x="0.4571" width="80" relative="1" as="geometry">
            <mxPoint x="400" y="731" as="sourcePoint" />
            <mxPoint x="745" y="731" as="targetPoint" />
            <mxPoint as="offset" />
          </mxGeometry>
        </mxCell>
        <mxCell id="xqgntHTFzO8ui-Y6-jRy-8" value="retrieves from data model" style="html=1;verticalAlign=bottom;endArrow=block;curved=0;rounded=0;" edge="1" parent="1">
          <mxGeometry width="80" relative="1" as="geometry">
            <mxPoint x="755" y="761.0000000000002" as="sourcePoint" />
            <mxPoint x="1315" y="761.0000000000002" as="targetPoint" />
          </mxGeometry>
        </mxCell>
        <mxCell id="xqgntHTFzO8ui-Y6-jRy-9" value="displays data to&amp;nbsp;" style="html=1;verticalAlign=bottom;endArrow=block;curved=0;rounded=0;" edge="1" parent="1" target="xqgntHTFzO8ui-Y6-jRy-4">
          <mxGeometry x="-0.4" width="80" relative="1" as="geometry">
            <mxPoint x="745" y="801.0000000000002" as="sourcePoint" />
            <mxPoint x="395" y="801.0000000000002" as="targetPoint" />
            <mxPoint x="1" as="offset" />
          </mxGeometry>
        </mxCell>
        <mxCell id="xqgntHTFzO8ui-Y6-jRy-10" value="discusses treatment analysis&amp;nbsp;&lt;div&gt;in detail and post treatment actions&lt;/div&gt;" style="html=1;verticalAlign=bottom;endArrow=block;curved=0;rounded=0;" edge="1" parent="1" source="xqgntHTFzO8ui-Y6-jRy-4">
          <mxGeometry width="80" relative="1" as="geometry">
            <mxPoint x="400" y="862" as="sourcePoint" />
            <mxPoint x="545" y="861.5" as="targetPoint" />
          </mxGeometry>
        </mxCell>
      </root>
    </mxGraphModel>
  </diagram>
</mxfile>
